<?xml version="1.0" encoding="utf-8"?>
<!-- Generator: Adobe Illustrator 16.0.0, SVG Export Plug-In . SVG Version: 6.00 Build 0)  -->
<!DOCTYPE svg PUBLIC "-//W3C//DTD SVG 1.1//EN" "http://www.w3.org/Graphics/SVG/1.1/DTD/svg11.dtd">
<svg version="1.1" id="katman_1" xmlns="http://www.w3.org/2000/svg" xmlns:xlink="http://www.w3.org/1999/xlink" x="0px" y="0px"
	 width="263.885px" height="56.692px" viewBox="0 0 263.885 56.692" enable-background="new 0 0 263.885 56.692"
	 xml:space="preserve">
<g>
	<defs>
		<path id="SVGID_1_" d="M28.234,0c-0.133,0-0.267,0.004-0.401,0.006v0.007h-0.418c-0.959,0.028-1.907,0.101-2.84,0.222v0.029
			h-0.202c-1.212,0.165-2.4,0.407-3.558,0.721v0.03h-0.114c-1.431,0.395-2.817,0.898-4.147,1.501V2.52h-0.008
			c-0.165,0.075-0.33,0.151-0.494,0.23v0.02h-0.045c-0.153,0.074-0.304,0.15-0.456,0.226v0.025h-0.05
			c-0.755,0.381-1.492,0.796-2.206,1.242v0.011h-0.019c-0.505,0.316-1.002,0.646-1.485,0.993v0.01h-0.014
			c-0.334,0.24-0.665,0.487-0.989,0.741v0.011h-0.014c-0.6,0.472-1.181,0.969-1.741,1.487v0.017H9.015
			C8.938,7.604,8.86,7.675,8.783,7.749v0.034H8.745C8.328,8.181,7.923,8.593,7.529,9.017v0.02H7.51
			c-0.516,0.557-1.013,1.135-1.485,1.733v0.022H6.008c-0.252,0.32-0.496,0.646-0.735,0.977v0.026H5.256
			c-0.344,0.479-0.671,0.969-0.986,1.469v0.035H4.25c-0.254,0.406-0.498,0.819-0.731,1.24v0.012H3.512
			c-0.261,0.472-0.511,0.95-0.745,1.437v0.068H2.735c-0.074,0.155-0.148,0.311-0.219,0.467v0.034H2.501
			c-0.367,0.809-0.696,1.639-0.987,2.485v0.022H1.507c-0.416,1.213-0.749,2.464-0.996,3.747v0.013H0.508
			c-0.287,1.493-0.458,3.028-0.498,4.596v0.417H0.004C0.003,27.944,0,28.051,0,28.159v0.309c0,0.04,0.001,0.08,0.001,0.121H0.01
			v0.587c0.024,0.987,0.099,1.962,0.223,2.922H0.26v0.206c0.06,0.436,0.129,0.868,0.209,1.298h0.042v0.226
			c0.067,0.346,0.139,0.688,0.218,1.027h0.032v0.135c0.07,0.291,0.143,0.58,0.221,0.868h0.03v0.109
			c0.201,0.728,0.431,1.442,0.687,2.146h0.065v0.176c0.072,0.193,0.147,0.386,0.223,0.576h0.028v0.07
			c0.299,0.745,0.628,1.474,0.988,2.186h0.015v0.028c0.08,0.158,0.162,0.317,0.244,0.473h0.006v0.011
			c0.224,0.421,0.457,0.835,0.701,1.242H4.02v0.086c0.451,0.747,0.934,1.471,1.45,2.171h0.054v0.073
			c0.234,0.314,0.474,0.625,0.72,0.93h0.033v0.04c0.553,0.683,1.138,1.338,1.753,1.965h0.001v0.002
			c0.082,0.084,0.164,0.167,0.246,0.249h0.005v0.004c0.083,0.083,0.165,0.165,0.25,0.246v0.001c0.634,0.615,1.294,1.2,1.983,1.754
			h0.023v0.019c0.312,0.251,0.631,0.495,0.955,0.733h0.048v0.036c0.216,0.158,0.434,0.313,0.656,0.466h0.095v0.066
			c0.478,0.325,0.966,0.639,1.465,0.937h0.039v0.023c0.129,0.076,0.258,0.151,0.389,0.227h0.112v0.064
			c0.841,0.476,1.709,0.911,2.601,1.302c1.046-3.627,2.664-8.152,5.094-12.656c-4.928-2.332-8.334-7.337-8.334-13.145v-0.309
			c0-8.029,6.524-14.538,14.576-14.538c6.428,0,11.881,4.143,13.821,9.902c4.661-1.663,9.263-2.34,13.517-2.432
			c-0.045-0.176-0.092-0.35-0.141-0.524h-0.024v-0.085c-0.063-0.224-0.13-0.446-0.199-0.667h-0.052v-0.163
			c-0.062-0.198-0.126-0.394-0.193-0.589h-0.058v-0.167c-0.068-0.197-0.137-0.391-0.21-0.585h-0.04v-0.104
			c-0.411-1.085-0.887-2.138-1.425-3.154h-0.079v-0.149c-0.064-0.118-0.127-0.236-0.191-0.354H52.9v-0.104
			c-0.074-0.132-0.149-0.266-0.226-0.397H52.65v-0.041c-0.24-0.411-0.49-0.815-0.749-1.212h-0.003v-0.005
			c-0.221-0.338-0.449-0.67-0.683-0.997h-0.069v-0.097c-0.16-0.221-0.325-0.439-0.491-0.656h-0.011v-0.013
			c-0.06-0.079-0.121-0.159-0.183-0.237h-0.067v-0.085c-0.316-0.398-0.642-0.788-0.979-1.169h-0.024V9.51
			c-0.373-0.421-0.757-0.828-1.154-1.226h-0.1V8.187c-0.051-0.052-0.103-0.102-0.154-0.153h-0.096V7.941l-0.164-0.159h-0.087V7.701
			c-0.059-0.056-0.12-0.113-0.18-0.169h-0.07V7.467c-0.068-0.063-0.137-0.124-0.204-0.186h-0.047V7.24
			c-0.078-0.071-0.155-0.14-0.234-0.209h-0.016V7.017c-0.701-0.614-1.431-1.196-2.191-1.74h-0.066V5.23
			c-0.217-0.155-0.437-0.307-0.659-0.455h-0.092V4.712c-0.225-0.15-0.453-0.296-0.682-0.439h-0.071V4.23
			c-0.699-0.434-1.417-0.838-2.155-1.21h-0.101V2.969c-0.135-0.068-0.272-0.134-0.408-0.2h-0.093V2.725
			c-0.148-0.07-0.295-0.137-0.445-0.205h-0.057V2.493c-0.367-0.166-0.738-0.325-1.115-0.476h-0.137V1.963
			c-0.402-0.158-0.808-0.307-1.217-0.447h-0.037V1.503c-0.242-0.082-0.486-0.162-0.732-0.237h-0.02V1.259
			c-0.277-0.085-0.556-0.167-0.836-0.245h-0.167V0.969c-0.267-0.072-0.536-0.141-0.806-0.205h-0.197V0.72
			c-0.321-0.074-0.644-0.144-0.97-0.207h-0.032V0.508c-0.495-0.096-0.995-0.177-1.499-0.245h-0.757V0.169
			c-0.759-0.083-1.528-0.136-2.305-0.157h-0.452V0.004C28.469,0.002,28.352,0,28.234,0z"/>
	</defs>
	<clipPath id="SVGID_2_">
		<use xlink:href="#SVGID_1_"  overflow="visible"/>
	</clipPath>
	
		<radialGradient id="SVGID_3_" cx="0" cy="56.6924" r="1" gradientTransform="matrix(41.2439 3.139 1.8768 -24.6598 -78.6201 1405.8689)" gradientUnits="userSpaceOnUse">
		<stop  offset="0" style="stop-color:#F6A000"/>
		<stop  offset="1" style="stop-color:#EA5357"/>
	</radialGradient>
	<polygon clip-path="url(#SVGID_2_)" fill="url(#SVGID_3_)" points="0.32,-4.206 59.679,0.312 55.252,58.475 -4.106,53.957 	"/>
</g>
<g>
	<defs>
		<rect id="SVGID_4_" y="0" width="263.885" height="56.693"/>
	</defs>
	<clipPath id="SVGID_5_">
		<use xlink:href="#SVGID_4_"  overflow="visible"/>
	</clipPath>
	<path clip-path="url(#SVGID_5_)" fill-rule="evenodd" clip-rule="evenodd" fill="#12110C" d="M82.324,28.708
		c0,4.891,4.355,6.492,8.546,6.862c1.068,0.082,3.533-0.124,3.533,1.479c0,0.78-1.15,1.397-2.835,1.355
		c-1.479,0-3.04-0.616-3.081-2.095h-6.492c0.083,5.67,4.109,8.053,9.409,8.053c4.93,0,9.491-1.89,9.491-7.479
		c0-5.258-4.725-7.23-9.368-7.354c-0.945-0.041-2.67-0.082-2.67-1.232c0-1.192,1.314-1.521,2.259-1.521
		c1.356,0,3.082,0.124,3.123,1.849h6.204c-0.041-5.177-4.191-7.601-8.957-7.601C86.515,21.025,82.324,23.326,82.324,28.708
		 M127.583,32.694c0-15.818-23.706-15.859-23.706,0C103.877,48.429,127.583,48.512,127.583,32.694 M110.368,32.694
		c0-7.519,10.723-7.56,10.723,0C121.091,40.171,110.368,40.13,110.368,32.694 M131.427,43.787h6.574v-28.76h-6.574V43.787z
		 M152.732,21.19c-7.189,0-10.682,5.012-10.765,11.093c-0.041,6.121,3.616,11.791,10.683,11.791c2.137,0,4.313-0.616,5.834-2.506
		v2.219h6.45V21.559h-6.45v2.301C157.047,22.012,154.91,21.19,152.732,21.19 M153.431,37.87c-3.328,0-5.012-2.752-4.971-5.423
		c0.041-2.711,1.684-5.3,4.971-5.3c2.794,0,5.054,2.424,5.054,5.382S156.225,37.87,153.431,37.87 M176.216,31.461
		c0-2.999,2.382-4.232,4.724-4.273c0.74,0,1.521,0.123,2.179,0.329l0.082-6.081c-0.863-0.205-1.726-0.329-2.507-0.329
		c-1.808,0-3.409,0.576-4.848,1.931l-0.247-1.479h-5.834v22.228h6.451V31.461z M191.975,27.969c0-2.301,2.3-3.246,4.766-3.246
		c2.425,0,4.52,0.945,4.726,2.917h3.985c-0.288-4.643-4.191-6.533-8.587-6.533c-4.314,0-8.875,1.808-8.875,6.944
		c0,4.971,4.725,6.204,8.711,6.368c1.931,0.082,5.423,0.493,5.382,2.999c0,2.548-3.041,3.205-5.055,3.246
		c-2.794,0.041-5.176-1.19-5.341-3.698h-4.025c0.246,4.808,3.82,6.821,7.929,7.108l-1.273,3.78c3.41-0.411,4.766,0.411,4.561,1.479
		c-0.205,1.109-3.122,2.054-4.644,0l-2.465,1.151c1.809,4.601,9.902,3.368,10.354-1.028c0.493-2.136-1.397-3.245-4.068-3.368
		l0.535-2.014c3.738-0.37,7.518-2.136,7.518-6.615c0-5.053-4.766-6.368-8.956-6.655C195.179,30.681,191.975,30.763,191.975,27.969
		 M230.366,21.559l0.041,2.959c-1.973-2.671-5.301-3.328-8.054-3.328c-7.519,0-11.873,5.382-11.873,11.38
		c0,6.122,4.19,11.586,11.955,11.586c2.753-0.041,6.327-0.945,7.931-3.369v3h4.025V21.559H230.366z M230.366,32.652
		c0,5.218-4.109,7.848-7.766,7.93c-5.095,0.123-8.094-3.739-8.094-8.012c0-4.355,2.917-7.765,7.765-7.847
		C226.052,24.682,230.366,27.311,230.366,32.652 M240.859,21.6v22.187h3.986V31.749c0-4.807,4.354-8.135,8.915-6.78v-3.533
		c-3.533-0.821-6.779-0.123-8.915,2.876V21.6H240.859z M258.873,15.725c0,3.123,5.012,3.123,5.012,0
		C263.885,12.603,258.873,12.685,258.873,15.725 M259.366,21.313h4.025v22.022c0,5.998-3.697,7.889-9.038,7.313v-3.533
		c2.629,0.246,5.013-0.411,5.013-3.534V21.313z"/>
</g>
<g>
	<defs>
		<path id="SVGID_6_" d="M54.404,28.336L54.404,28.336l-0.055,0.001c-2.544,0.119-5.343,0.476-8.217,1.237v0.018h-0.066
			c-0.56,0.149-1.124,0.314-1.688,0.495v0.006h-0.016c-0.245,0.078-0.491,0.16-0.736,0.246v0.005h-0.014
			c-0.831,0.289-1.663,0.614-2.493,0.981v0.021h-0.046c-0.306,0.136-0.613,0.275-0.919,0.423c-0.353,0.171-0.701,0.352-1.04,0.541
			v0.039h-0.071c-0.145,0.081-0.288,0.165-0.43,0.249V32.6h-0.002c-0.517,0.307-1.018,0.633-1.503,0.977v0.026h-0.035
			c-2.349,1.675-4.328,3.771-5.981,5.999v0.016H31.08c-0.726,0.981-1.389,1.986-1.993,2.992v0.017h-0.011
			c-0.35,0.584-0.681,1.168-0.991,1.748v0.007h-0.004c-3.114,5.806-4.297,11.138-4.297,11.138s5.063,1.167,11.409,1.174h0.086
			c0.437,0,0.88-0.006,1.328-0.018v-0.012h0.358c2.816-0.097,5.805-0.447,8.666-1.236v-0.018h0.058
			c1.906-0.53,3.754-1.256,5.457-2.231v-0.023h0.04c0.185-0.106,0.369-0.216,0.55-0.328c0.577-0.358,1.131-0.748,1.666-1.161V51.65
			h0.019c0.604-0.468,1.183-0.966,1.735-1.491v-0.014h0.013c0.252-0.238,0.499-0.482,0.74-0.731v-0.02h0.018
			c0.078-0.081,0.156-0.162,0.232-0.244v-0.007h0.006c0.524-0.559,1.024-1.14,1.498-1.735V47.39h0.016
			c6.103-7.683,8.222-18.043,8.222-18.043s-3-0.804-7.479-1.009h-0.007c-0.65-0.029-1.33-0.046-2.037-0.046
			C55.74,28.292,55.081,28.305,54.404,28.336"/>
	</defs>
	<clipPath id="SVGID_7_">
		<use xlink:href="#SVGID_6_"  overflow="visible"/>
	</clipPath>
	
		<linearGradient id="SVGID_8_" gradientUnits="userSpaceOnUse" x1="0" y1="56.6924" x2="1" y2="56.6924" gradientTransform="matrix(7.6741 30.9298 30.9298 -7.6741 -1712.4238 462.3004)">
		<stop  offset="0" style="stop-color:#73BD82"/>
		<stop  offset="1" style="stop-color:#3CAFB8"/>
	</linearGradient>
	<polygon clip-path="url(#SVGID_7_)" fill="url(#SVGID_8_)" points="63.458,18.448 72.539,55.046 26.227,66.536 17.146,29.938 	"/>
</g>
</svg>
